<?xml version="1.0" encoding="UTF-8" standalone="no"?>
<svg
   viewBox="0 0 1000 1000"
   version="1.1"
   id="svg1"
   sodipodi:docname="icon.svg"
   width="1000"
   height="1000"
   inkscape:version="1.3.2 (091e20e, 2023-11-25)"
   xmlns:inkscape="http://www.inkscape.org/namespaces/inkscape"
   xmlns:sodipodi="http://sodipodi.sourceforge.net/DTD/sodipodi-0.dtd"
   xmlns="http://www.w3.org/2000/svg"
   xmlns:svg="http://www.w3.org/2000/svg">
  <defs
     id="defs1" />
  <sodipodi:namedview
     id="namedview1"
     pagecolor="#505050"
     bordercolor="#eeeeee"
     borderopacity="1"
     inkscape:showpageshadow="0"
     inkscape:pageopacity="0"
     inkscape:pagecheckerboard="0"
     inkscape:deskcolor="#505050"
     inkscape:zoom="0.21851852"
     inkscape:cx="963.30508"
     inkscape:cy="537.71186"
     inkscape:window-width="1728"
     inkscape:window-height="986"
     inkscape:window-x="0"
     inkscape:window-y="38"
     inkscape:window-maximized="0"
     inkscape:current-layer="svg1" />
  <path
     d="m 583.01137,43.144873 c -22.55682,-56.210939 -140.45455,-58.828126 -166.02272,0 C 284.11933,351.26988 0,435.00035 0,652.16832 0,844.43395 223.63637,1000.0004 500.00001,1000.0004 776.36365,1000.0004 1000,844.43395 1000,652.16832 1000,433.9066 716.50568,352.67613 583.01137,43.144873 Z M 500.00001,875.00036 c -175.42615,0 -318.18182,-98.14454 -318.18182,-218.75001 0,-17.26562 20.34091,-31.25 45.45454,-31.25 25.11363,0 45.45454,13.98438 45.45454,31.25 0,86.15235 101.96024,156.25 227.27274,156.25 25.11363,0 45.45454,13.98438 45.45454,31.25 0,17.26563 -20.34091,31.25001 -45.45454,31.25001 z"
     id="path1"
     style="stroke-width:2.35555" />
</svg>
